<?xml version="1.0" encoding="utf-8"?>
<!-- Generator: Adobe Illustrator 16.2.1, SVG Export Plug-In . SVG Version: 6.00 Build 0)  -->
<!DOCTYPE svg PUBLIC "-//W3C//DTD SVG 1.1//EN" "http://www.w3.org/Graphics/SVG/1.1/DTD/svg11.dtd">
<svg version="1.1" id="Layer_1" xmlns="http://www.w3.org/2000/svg" xmlns:xlink="http://www.w3.org/1999/xlink" x="0px" y="0px"
	 width="773.926px" height="297.106px" viewBox="0 0 773.926 297.106" enable-background="new 0 0 773.926 297.106"
	 xml:space="preserve">
<g>
	<polyline fill="none" stroke="#5E81B5" stroke-width="2" stroke-linecap="square" stroke-miterlimit="3.25" points="
		156.215,148.549 156.358,148.297 156.5,148.04 156.78,147.526 157.346,146.493 158.48,144.43 160.747,140.311 165.272,132.104 
		175.094,114.565 184.268,98.729 193.251,83.958 203.003,69.026 212.11,56.354 221.971,44.221 222.121,44.051 222.274,43.875 
		223.179,42.856 224.391,41.522 226.809,38.938 231.654,34.135 231.795,34.002 231.933,33.872 232.218,33.608 232.783,33.086 
		233.913,32.067 236.168,30.104 236.311,29.983 236.454,29.868 236.733,29.631 237.297,29.165 238.427,28.254 240.686,26.516 
		240.841,26.401 240.989,26.292 241.295,26.065 241.91,25.622 243.133,24.766 245.581,23.147 245.734,23.055 245.886,22.956 
		246.809,22.395 248.033,21.672 250.479,20.338 250.62,20.268 250.763,20.192 251.049,20.047 251.624,19.762 252.766,19.221 
		252.907,19.155 253.051,19.094 253.336,18.961 253.907,18.709 255.053,18.233 255.195,18.172 255.338,18.116 255.624,18.002 
		256.194,17.784 257.336,17.366 257.477,17.317 257.625,17.268 257.911,17.17 258.481,16.977 259.624,16.625 259.764,16.586 
		259.902,16.543 260.743,16.313 261.027,16.235 261.306,16.167 261.865,16.028 262.002,15.995 262.146,15.963 262.426,15.895 
		262.985,15.768 264.104,15.551 264.247,15.524 264.383,15.495 264.663,15.446 265.228,15.36 265.365,15.336 265.508,15.315 
		265.788,15.27 266.348,15.194 266.484,15.178 266.627,15.161 266.907,15.127 267.043,15.112 267.186,15.094 267.467,15.067 
		267.609,15.051 267.746,15.04 268.026,15.012 268.168,15.002 268.305,14.991 268.584,14.969 268.891,14.948 269.042,14.936 
		269.194,14.924 269.346,14.92 269.501,14.909 269.803,14.891 269.957,14.887 270.104,14.881 270.412,14.87 270.56,14.87 
		270.866,14.86 271.167,14.86 271.323,14.854 271.778,14.854 271.93,14.86 272.233,14.86 272.385,14.866 272.54,14.866 
		272.687,14.87 272.996,14.881 273.144,14.887 273.604,14.903 273.752,14.915 273.905,14.92 274.059,14.93 274.207,14.942 
		274.362,14.952 274.664,14.975 274.969,14.999 275.272,15.024 275.881,15.084 276.188,15.118 276.489,15.149 277.098,15.233 
		277.245,15.254 277.399,15.27 277.708,15.321 278.311,15.415 278.454,15.44 278.594,15.463 278.88,15.512 279.446,15.622 
		280.016,15.731 280.581,15.858 280.723,15.885 280.868,15.918 281.147,15.983 281.717,16.122 282.853,16.422 282.989,16.461 
		283.131,16.504 283.417,16.586 283.981,16.752 285.118,17.118 287.388,17.936 288.004,18.176 288.617,18.43 289.846,18.961 
		292.303,20.137 292.456,20.217 292.617,20.295 292.922,20.454 293.538,20.778 294.766,21.452 297.223,22.917 297.376,23.01 
		297.525,23.104 297.827,23.295 298.43,23.684 299.637,24.487 302.049,26.192 306.882,29.993 307.02,30.114 307.163,30.227 
		307.442,30.469 308.008,30.954 309.13,31.94 311.385,34.002 315.889,38.44 316.038,38.598 316.499,39.077 317.106,39.717 
		318.331,41.024 320.772,43.723 325.653,49.469 334.776,61.346 344.653,75.723 354.352,91.12 363.397,106.391 373.209,123.663 
		382.37,140.196 391.35,156.532 401.09,174.112 410.18,190.118 420.036,206.737 429.708,222.04 438.731,235.172 448.516,247.93 
		448.659,248.108 448.801,248.276 449.086,248.622 449.657,249.307 450.797,250.663 453.079,253.295 457.649,258.254 
		457.786,258.401 457.928,258.545 458.208,258.834 458.768,259.405 459.887,260.536 462.124,262.708 462.268,262.838 
		462.405,262.971 462.684,263.235 463.243,263.754 464.362,264.776 466.6,266.735 466.754,266.866 466.907,266.991 467.209,267.249 
		467.819,267.754 469.03,268.735 471.459,270.606 471.614,270.721 471.762,270.831 472.069,271.055 472.672,271.495 
		473.891,272.346 476.315,273.946 476.458,274.036 476.6,274.127 476.885,274.303 477.45,274.649 478.586,275.319 480.852,276.569 
		480.993,276.645 481.131,276.715 481.417,276.866 481.981,277.151 483.116,277.7 485.381,278.702 485.536,278.768 485.688,278.829 
		485.997,278.956 486.612,279.196 487.838,279.651 488.147,279.76 489.067,280.075 490.297,280.458 490.911,280.633 
		491.526,280.803 491.678,280.842 491.833,280.885 492.139,280.963 492.754,281.11 492.907,281.149 493.061,281.182 
		493.368,281.254 493.983,281.385 495.211,281.62 495.354,281.649 495.497,281.67 495.782,281.719 496.358,281.809 496.643,281.852 
		496.928,281.889 497.504,281.961 498.075,282.026 498.217,282.038 498.366,282.053 498.651,282.081 498.793,282.092 
		498.936,282.108 499.221,282.131 499.37,282.143 499.512,282.153 499.797,282.17 499.94,282.18 500.081,282.186 500.225,282.198 
		500.372,282.202 501.229,282.235 501.375,282.241 501.52,282.241 501.663,282.247 501.946,282.247 502.09,282.25 502.665,282.25 
		502.809,282.247 502.952,282.247 503.094,282.241 503.235,282.241 503.379,282.235 503.526,282.235 504.098,282.213 
		504.383,282.198 504.668,282.186 504.948,282.165 505.09,282.161 505.227,282.147 505.506,282.125 505.792,282.104 
		506.631,282.022 506.917,281.989 507.196,281.956 507.756,281.883 507.897,281.868 508.042,281.846 508.321,281.809 
		508.879,281.719 509.167,281.676 509.446,281.627 510.004,281.522 510.29,281.467 510.571,281.413 511.129,281.292 
		511.272,281.264 511.415,281.231 512.254,281.034 513.377,280.743 513.686,280.657 513.993,280.573 514.602,280.393 
		515.819,280.002 516.125,279.905 516.428,279.799 517.042,279.581 518.26,279.12 518.567,279 518.87,278.877 519.477,278.625 
		520.702,278.094 523.135,276.924 523.28,276.854 523.422,276.778 524.276,276.333 525.418,275.708 527.694,274.364 
		527.981,274.188 528.26,274.008 528.831,273.645 529.971,272.899 532.247,271.319 532.401,271.209 532.555,271.094 532.862,270.87 
		533.481,270.415 534.715,269.471 537.178,267.487 542.114,263.12 542.268,262.977 542.417,262.834 542.719,262.549 
		543.327,261.967 544.54,260.782 546.958,258.331 551.801,253.059 560.842,242.034 570.643,228.487 579.793,214.553 
		588.762,199.897 598.497,183.139 607.575,166.948 607.893,166.377 608.211,165.801 608.842,164.661 610.11,162.368 612.643,157.77 
		612.803,157.485 612.961,157.196 613.28,156.618 613.911,155.467 615.178,153.163 615.336,152.877 615.497,152.586 615.815,152.01 
		616.446,150.86 616.604,150.569 616.764,150.284 617.081,149.708 617.241,149.417 617.393,149.131 617.553,148.84 617.711,148.555 
			"/>
	
		<line fill="none" stroke="#666666" stroke-width="0.2" stroke-miterlimit="3.25" x1="156.215" y1="148.555" x2="156.215" y2="142.938"/>
	<line fill="none" stroke="#666666" stroke-miterlimit="3.25" x1="146.599" y1="148.555" x2="627.327" y2="148.555"/>
	
		<line fill="none" stroke="#666666" stroke-width="0.2" stroke-miterlimit="3.25" x1="156.215" y1="148.555" x2="161.832" y2="148.555"/>
	<line fill="none" stroke="#666666" stroke-miterlimit="3.25" x1="156.215" y1="297.106" x2="156.215" y2="0"/>
	<g>
		<g>
			<line fill="none" stroke="#231F20" stroke-miterlimit="3.25" x1="270.866" y1="21.92" x2="270.866" y2="148.555"/>
			<g>
				<polygon fill="#231F20" points="270.866,14.86 266.8,24.809 270.866,22.448 274.93,24.809 				"/>
			</g>
		</g>
	</g>
	<g>
		<g>
			<line fill="none" stroke="#231F20" stroke-miterlimit="3.25" x1="502.588" y1="275.188" x2="502.588" y2="148.553"/>
			<g>
				<polygon fill="#231F20" points="502.588,282.249 506.654,272.299 502.588,274.661 498.524,272.299 				"/>
			</g>
		</g>
	</g>
	<text transform="matrix(1 0 0 1 279.7847 92.6782)" font-family="'Lora-Regular'" font-size="33.701">P</text>
	<text transform="matrix(0.583 0 0 0.583 300.2065 103.9009)" font-family="'Lora-Regular'" font-size="33.701">+</text>
	<text transform="matrix(1 0 0 1 509.3726 219.0562)" font-family="'Lora-Regular'" font-size="33.701">P</text>
	<text transform="matrix(0.583 0 0 0.583 529.7954 230.2788)" font-family="'Lora-Regular'" font-size="33.701">-</text>
</g>
</svg>
